<svg width="50" height="50" viewBox="0 0 50 50" fill="none" xmlns="http://www.w3.org/2000/svg">
<circle cx="25" cy="25" r="25" fill="white"/>
<path d="M39.9275 21.625L38.1775 17.25C38.029 16.8798 37.7728 16.5628 37.4421 16.3399C37.1114 16.117 36.7213 15.9986 36.3225 16H32V15C32 14.7348 31.8946 14.4804 31.7071 14.2929C31.5196 14.1054 31.2652 14 31 14H12C11.4696 14 10.9609 14.2107 10.5858 14.5858C10.2107 14.9609 10 15.4696 10 16V30C10 30.5304 10.2107 31.0391 10.5858 31.4142C10.9609 31.7893 11.4696 32 12 32H14.125C14.3453 32.8604 14.8457 33.623 15.5473 34.1676C16.2489 34.7122 17.1118 35.0078 18 35.0078C18.8882 35.0078 19.7511 34.7122 20.4527 34.1676C21.1543 33.623 21.6547 32.8604 21.875 32H28.125C28.3453 32.8604 28.8457 33.623 29.5473 34.1676C30.2489 34.7122 31.1118 35.0078 32 35.0078C32.8882 35.0078 33.7511 34.7122 34.4527 34.1676C35.1543 33.623 35.6547 32.8604 35.875 32H38C38.5304 32 39.0391 31.7893 39.4142 31.4142C39.7893 31.0391 40 30.5304 40 30V22C40.0003 21.8715 39.9757 21.7441 39.9275 21.625ZM32 18H36.3225L37.5225 21H32V18ZM12 16H30V24H12V16ZM18 33C17.6044 33 17.2178 32.8827 16.8889 32.6629C16.56 32.4432 16.3036 32.1308 16.1522 31.7654C16.0009 31.3999 15.9613 30.9978 16.0384 30.6098C16.1156 30.2219 16.3061 29.8655 16.5858 29.5858C16.8655 29.3061 17.2219 29.1156 17.6098 29.0384C17.9978 28.9613 18.3999 29.0009 18.7654 29.1522C19.1308 29.3036 19.4432 29.56 19.6629 29.8889C19.8827 30.2178 20 30.6044 20 31C20 31.5304 19.7893 32.0391 19.4142 32.4142C19.0391 32.7893 18.5304 33 18 33ZM28.125 30H21.875C21.6547 29.1396 21.1543 28.377 20.4527 27.8324C19.7511 27.2878 18.8882 26.9922 18 26.9922C17.1118 26.9922 16.2489 27.2878 15.5473 27.8324C14.8457 28.377 14.3453 29.1396 14.125 30H12V26H30V27.5387C29.5402 27.8045 29.1377 28.159 28.8158 28.5814C28.4939 29.0039 28.2591 29.4861 28.125 30ZM32 33C31.6044 33 31.2178 32.8827 30.8889 32.6629C30.56 32.4432 30.3036 32.1308 30.1522 31.7654C30.0009 31.3999 29.9613 30.9978 30.0384 30.6098C30.1156 30.2219 30.3061 29.8655 30.5858 29.5858C30.8655 29.3061 31.2219 29.1156 31.6098 29.0384C31.9978 28.9613 32.3999 29.0009 32.7654 29.1522C33.1308 29.3036 33.4432 29.56 33.6629 29.8889C33.8827 30.2178 34 30.6044 34 31C34 31.5304 33.7893 32.0391 33.4142 32.4142C33.0391 32.7893 32.5304 33 32 33ZM38 30H35.875C35.6521 29.1417 35.1507 28.3815 34.4495 27.8387C33.7483 27.2958 32.8868 27.0008 32 27V23H38V30Z" fill="#1989FB"/>
</svg>
