<svg xmlns="http://www.w3.org/2000/svg" width="1893" height="190" version="1.1" style=""><rect id="backgroundrect" width="100%" height="100%" x="0" y="0" fill="none" stroke="none"/><g class="currentLayer" style=""><title>Layer 1</title><path d="M1712.5,64.536C1614.05,99.953 1534.507,128.946 1535.738,128.965C1537.596,128.994 1881.727,71.186 1890.25,69.413L1893,68.841L1893,34.421C1893,15.489 1892.662,0.032 1892.25,0.071C1891.838,0.11 1810.95,29.119 1712.5,64.536" stroke="none" fill="#2081e1" fill-rule="evenodd" id="svg_1" class="selected" opacity="1" fill-opacity="1"/><path d="M 1715 99.284 L 1539.500 129.361 947.500 129.931 L 355.500 130.500 180 159.769 C 83.475 175.866, 3.825 189.202, 3 189.403 C 2.175 189.604, 427.087 189.820, 947.250 189.884 L 1893 190 1893 129.500 C 1893 81.711, 1892.737 69.022, 1891.750 69.104 C 1891.063 69.161, 1811.525 82.742, 1715 99.284" stroke="none" fill="#ffffff" fill-rule="evenodd" id="svg_2"/></g></svg>