<svg width="98" height="98" viewBox="0 0 98 98" fill="none" xmlns="http://www.w3.org/2000/svg">
<rect width="98" height="98" rx="5" fill="#1989FB"/>
<path opacity="0.92" d="M48.5 17C42.2699 17 36.1797 18.8768 30.9995 22.393C25.8194 25.9092 21.782 30.9069 19.3978 36.7541C17.0136 42.6014 16.3898 49.0355 17.6053 55.2429C18.8207 61.4503 21.8208 67.1521 26.2261 71.6274C30.6315 76.1027 36.2443 79.1504 42.3547 80.3851C48.4651 81.6198 54.7987 80.9861 60.5545 78.5641C66.3104 76.1421 71.23 72.0406 74.6913 66.7782C78.1526 61.5159 80 55.329 80 49C79.9912 40.5158 76.6696 32.3817 70.7641 26.3825C64.8586 20.3833 56.8516 17.009 48.5 17ZM75.1538 49C75.1565 52.4738 74.4983 55.9153 73.2154 59.1354L59.6764 50.6769C59.1008 50.3161 58.4568 50.0823 57.7864 49.9908L50.8746 49.0431C49.9222 48.9169 48.9543 49.0791 48.0923 49.5093C47.2302 49.9395 46.5123 50.6186 46.0285 51.4615H43.3873L42.2364 49.0431C41.9182 48.3697 41.4525 47.7791 40.875 47.3167C40.2975 46.8544 39.6235 46.5323 38.9046 46.3754L36.4815 45.8431L38.8501 41.6154H43.9113C44.7303 41.6137 45.5356 41.4021 46.2526 41L49.9629 38.92C50.2889 38.7354 50.5937 38.5146 50.8716 38.2615L59.0222 30.7723C59.8394 30.0283 60.3825 29.0236 60.562 27.9239C60.7416 26.8242 60.5467 25.6952 60.0096 24.7231L59.9006 24.5231C64.4614 26.72 68.3154 30.1858 71.0153 34.5183C73.7152 38.8508 75.1502 43.8723 75.1538 49ZM53.1372 22.3354L55.7692 27.1231L47.6186 34.6123L43.9113 36.6923H38.8501C37.9982 36.691 37.161 36.9179 36.423 37.3501C35.6849 37.7822 35.072 38.4044 34.6461 39.1538L32.0019 43.84L28.9276 35.52L32.2412 27.56C35.1741 25.2578 38.5481 23.6034 42.1469 22.7026C45.7458 21.8019 49.4902 21.6747 53.1402 22.3292L53.1372 22.3354ZM21.8462 49C21.8421 44.9754 22.726 41.0011 24.4328 37.3692L27.8675 46.6831C28.1537 47.4542 28.626 48.14 29.2409 48.6776C29.8558 49.2152 30.5937 49.5874 31.387 49.76L37.8778 51.1785L39.0318 53.6154C39.4323 54.4442 40.053 55.1427 40.8237 55.6321C41.5944 56.1214 42.4845 56.3821 43.3934 56.3846H43.8416L41.6518 61.3784C41.2659 62.2578 41.1424 63.2327 41.2963 64.1827C41.4503 65.1326 41.875 66.0158 42.518 66.7231L42.5604 66.7661L48.5 72.9815L47.9124 76.0584C40.9516 75.8939 34.3297 72.9723 29.4598 67.917C24.59 62.8617 21.8577 56.0732 21.8462 49ZM52.9161 75.7015L53.2583 73.9138C53.399 73.1543 53.3627 72.372 53.1523 71.6293C52.9419 70.8866 52.5633 70.2043 52.0468 69.6369C52.0319 69.6233 52.0177 69.6089 52.0044 69.5938L46.0769 63.3815L50.2264 53.9231L57.1383 54.8708L70.9862 63.5231C68.9799 66.7238 66.3351 69.4614 63.2225 71.5592C60.11 73.6569 56.5989 75.0681 52.9161 75.7015Z" fill="white"/>
</svg>
