<svg width="98" height="98" viewBox="0 0 98 98" fill="none" xmlns="http://www.w3.org/2000/svg">
<rect width="98" height="98" rx="5" fill="#1989FB"/>
<path opacity="0.92" d="M76.0231 41.4181C74.9628 40.31 73.8659 39.1681 73.4525 38.1641C73.07 37.2444 73.0475 35.72 73.025 34.2434C72.9828 31.4984 72.9378 28.3878 70.775 26.225C68.6122 24.0622 65.5016 24.0172 62.7566 23.975C61.28 23.9525 59.7556 23.93 58.8359 23.5475C57.8347 23.1341 56.69 22.0372 55.5819 20.9769C53.6412 19.1122 51.4362 17 48.5 17C45.5637 17 43.3616 19.1122 41.4181 20.9769C40.31 22.0372 39.1681 23.1341 38.1641 23.5475C37.25 23.93 35.72 23.9525 34.2434 23.975C31.4984 24.0172 28.3878 24.0622 26.225 26.225C24.0622 28.3878 24.0312 31.4984 23.975 34.2434C23.9525 35.72 23.93 37.2444 23.5475 38.1641C23.1341 39.1653 22.0372 40.31 20.9769 41.4181C19.1122 43.3587 17 45.5637 17 48.5C17 51.4362 19.1122 53.6384 20.9769 55.5819C22.0372 56.69 23.1341 57.8319 23.5475 58.8359C23.93 59.7556 23.9525 61.28 23.975 62.7566C24.0172 65.5016 24.0622 68.6122 26.225 70.775C28.3878 72.9378 31.4984 72.9828 34.2434 73.025C35.72 73.0475 37.2444 73.07 38.1641 73.4525C39.1653 73.8659 40.31 74.9628 41.4181 76.0231C43.3587 77.8878 45.5637 80 48.5 80C51.4362 80 53.6384 77.8878 55.5819 76.0231C56.69 74.9628 57.8319 73.8659 58.8359 73.4525C59.7556 73.07 61.28 73.0475 62.7566 73.025C65.5016 72.9828 68.6122 72.9378 70.775 70.775C72.9378 68.6122 72.9828 65.5016 73.025 62.7566C73.0475 61.28 73.07 59.7556 73.4525 58.8359C73.8659 57.8347 74.9628 56.69 76.0231 55.5819C77.8878 53.6412 80 51.4362 80 48.5C80 45.5637 77.8878 43.3616 76.0231 41.4181ZM72.7747 52.4684C71.4275 53.8747 70.0325 55.3288 69.2928 57.1147C68.5841 58.8303 68.5531 60.7906 68.525 62.6891C68.4969 64.6578 68.4659 66.7194 67.5913 67.5913C66.7166 68.4631 64.6691 68.4969 62.6891 68.525C60.7906 68.5531 58.8303 68.5841 57.1147 69.2928C55.3288 70.0325 53.8747 71.4275 52.4684 72.7747C51.0622 74.1219 49.625 75.5 48.5 75.5C47.375 75.5 45.9266 74.1162 44.5316 72.7747C43.1366 71.4331 41.6713 70.0325 39.8853 69.2928C38.1697 68.5841 36.2094 68.5531 34.3109 68.525C32.3422 68.4969 30.2806 68.4659 29.4087 67.5913C28.5369 66.7166 28.5031 64.6691 28.475 62.6891C28.4469 60.7906 28.4159 58.8303 27.7072 57.1147C26.9675 55.3288 25.5725 53.8747 24.2253 52.4684C22.8781 51.0622 21.5 49.625 21.5 48.5C21.5 47.375 22.8837 45.9266 24.2253 44.5316C25.5669 43.1366 26.9675 41.6713 27.7072 39.8853C28.4159 38.1697 28.4469 36.2094 28.475 34.3109C28.5031 32.3422 28.5341 30.2806 29.4087 29.4087C30.2834 28.5369 32.3309 28.5031 34.3109 28.475C36.2094 28.4469 38.1697 28.4159 39.8853 27.7072C41.6713 26.9675 43.1253 25.5725 44.5316 24.2253C45.9378 22.8781 47.375 21.5 48.5 21.5C49.625 21.5 51.0734 22.8837 52.4684 24.2253C53.8634 25.5669 55.3288 26.9675 57.1147 27.7072C58.8303 28.4159 60.7906 28.4469 62.6891 28.475C64.6578 28.5031 66.7194 28.5341 67.5913 29.4087C68.4631 30.2834 68.4969 32.3309 68.525 34.3109C68.5531 36.2094 68.5841 38.1697 69.2928 39.8853C70.0325 41.6713 71.4275 43.1253 72.7747 44.5316C74.1219 45.9378 75.5 47.375 75.5 48.5C75.5 49.625 74.1162 51.0734 72.7747 52.4684ZM61.3419 40.1581C61.5511 40.3671 61.717 40.6152 61.8303 40.8884C61.9435 41.1615 62.0018 41.4543 62.0018 41.75C62.0018 42.0457 61.9435 42.3385 61.8303 42.6116C61.717 42.8848 61.5511 43.1329 61.3419 43.3419L45.5919 59.0919C45.3829 59.3011 45.1348 59.467 44.8616 59.5803C44.5885 59.6935 44.2957 59.7518 44 59.7518C43.7043 59.7518 43.4115 59.6935 43.1384 59.5803C42.8652 59.467 42.6171 59.3011 42.4081 59.0919L35.6581 52.3419C35.2359 51.9197 34.9987 51.3471 34.9987 50.75C34.9987 50.1529 35.2359 49.5803 35.6581 49.1581C36.0803 48.7359 36.6529 48.4987 37.25 48.4987C37.8471 48.4987 38.4197 48.7359 38.8419 49.1581L44 54.3191L58.1581 40.1581C58.3671 39.9489 58.6152 39.783 58.8884 39.6697C59.1615 39.5565 59.4543 39.4982 59.75 39.4982C60.0457 39.4982 60.3385 39.5565 60.6116 39.6697C60.8848 39.783 61.1329 39.9489 61.3419 40.1581Z" fill="white"/>
</svg>
