<svg width="50" height="50" viewBox="0 0 50 50" fill="none" xmlns="http://www.w3.org/2000/svg">
<circle cx="25" cy="25" r="25" fill="white"/>
<path d="M32.1663 22.278L35.8088 18.8505L35.83 18.8292C36.5802 18.079 37.0017 17.0614 37.0017 16.0005C37.0017 14.9395 36.5802 13.9219 35.83 13.1717C35.0798 12.4215 34.0622 12 33.0013 12C31.9403 12 30.9227 12.4215 30.1725 13.1717C30.1725 13.1792 30.1588 13.1855 30.1513 13.193L26.7238 16.8355L16.3488 13.0605C16.1699 12.9954 15.9763 12.9827 15.7905 13.0239C15.6047 13.0651 15.4346 13.1584 15.3 13.293L12.3 16.293C12.1955 16.3976 12.1154 16.5241 12.0657 16.6634C12.0159 16.8026 11.9977 16.9512 12.0123 17.0984C12.0269 17.2456 12.0739 17.3877 12.15 17.5145C12.2262 17.6413 12.3295 17.7496 12.4525 17.8317L20.4388 23.1555L18.5863 25.0017H16C15.7351 25.0018 15.4811 25.107 15.2938 25.2942L12.2938 28.2942C12.1768 28.4109 12.0905 28.5548 12.0427 28.713C11.9949 28.8712 11.9871 29.0388 12.0199 29.2007C12.0527 29.3627 12.1252 29.514 12.2308 29.6411C12.3364 29.7683 12.4718 29.8672 12.625 29.9292L17.2275 31.7705L19.065 36.3642L19.0725 36.3842C19.1361 36.5381 19.2371 36.6736 19.3663 36.7786C19.4955 36.8836 19.6489 36.9546 19.8125 36.9853C19.9762 37.0159 20.1449 37.0053 20.3034 36.9542C20.4618 36.9032 20.605 36.8134 20.72 36.693L23.7038 33.708C23.7971 33.6155 23.8713 33.5055 23.9222 33.3843C23.973 33.2631 23.9995 33.1331 24 33.0017V30.4155L25.845 28.5705L31.1688 36.5567C31.2508 36.6797 31.3592 36.7831 31.486 36.8592C31.6128 36.9353 31.7549 36.9824 31.9021 36.9969C32.0492 37.0115 32.1978 36.9933 32.3371 36.9435C32.4764 36.8938 32.6029 36.8137 32.7075 36.7092L35.7075 33.7092C35.842 33.5746 35.9354 33.4045 35.9765 33.2187C36.0177 33.0329 36.005 32.8393 35.94 32.6605L32.1663 22.278ZM32.1575 34.4317L26.8338 26.4467C26.7521 26.3227 26.644 26.2185 26.517 26.1415C26.3901 26.0645 26.2477 26.0168 26.1 26.0017C26.0663 26.0017 26.0338 26.0017 26.0013 26.0017C25.8698 26.0018 25.7397 26.0277 25.6183 26.0781C25.4969 26.1286 25.3866 26.2024 25.2938 26.2955L22.2938 29.2955C22.1061 29.4826 22.0005 29.7367 22 30.0017V32.588L20.3663 34.2217L18.9288 30.6267C18.8785 30.5019 18.8035 30.3885 18.7083 30.2934C18.6132 30.1982 18.4998 30.1233 18.375 30.073L14.7825 28.6355L16.415 27.0017H19C19.1314 27.0018 19.2615 26.976 19.3829 26.9258C19.5043 26.8757 19.6146 26.802 19.7075 26.7092L22.7075 23.7092C22.8123 23.6046 22.8925 23.478 22.9424 23.3386C22.9923 23.1992 23.0106 23.0504 22.996 22.9031C22.9814 22.7557 22.9343 22.6135 22.858 22.4866C22.7818 22.3596 22.6783 22.2513 22.555 22.1692L14.57 16.8442L16.2575 15.158L26.66 18.9405C26.8433 19.0078 27.0423 19.02 27.2324 18.9756C27.4226 18.9312 27.5955 18.832 27.73 18.6905L31.5975 14.5767C31.9745 14.2108 32.4803 14.0078 33.0056 14.0118C33.531 14.0158 34.0337 14.2263 34.4051 14.5978C34.7765 14.9694 34.9868 15.4722 34.9905 15.9976C34.9943 16.5229 34.7911 17.0287 34.425 17.4055L30.3163 21.2717C30.1747 21.4062 30.0756 21.5792 30.0311 21.7693C29.9867 21.9594 29.9989 22.1584 30.0663 22.3417L33.8488 32.7442L32.1575 34.4317Z" fill="#1989FB"/>
</svg>
