<svg width="50" height="50" viewBox="0 0 50 50" fill="none" xmlns="http://www.w3.org/2000/svg">
<circle cx="25" cy="25" r="25" fill="white"/>
<path d="M36.9982 35C36.9982 35.2652 36.8928 35.5196 36.7053 35.7071C36.5178 35.8946 36.2634 36 35.9982 36H17.9982C17.733 36 17.4786 35.8946 17.2911 35.7071C17.1035 35.5196 16.9982 35.2652 16.9982 35C16.9982 34.7348 17.1035 34.4804 17.2911 34.2929C17.4786 34.1054 17.733 34 17.9982 34H35.9982C36.2634 34 36.5178 34.1054 36.7053 34.2929C36.8928 34.4804 36.9982 34.7348 36.9982 35ZM39.9982 25V28C39.9982 28.2652 39.8928 28.5196 39.7053 28.7071C39.5178 28.8946 39.2634 29 38.9982 29H16.6319C15.5554 29.0049 14.5064 28.6601 13.6428 28.0174C12.7791 27.3747 12.1476 26.4689 11.8432 25.4363L10.0844 19.575C9.99484 19.2765 9.97624 18.9612 10.0301 18.6542C10.084 18.3473 10.2089 18.0571 10.3948 17.807C10.5807 17.5569 10.8225 17.3536 11.1009 17.2135C11.3793 17.0734 11.6865 17.0003 11.9982 17H12.9982C13.2631 17.0001 13.517 17.1053 13.7044 17.2925L16.4132 20H19.2244L18.0994 16.6325C17.9992 16.3317 17.9719 16.0115 18.0197 15.6981C18.0676 15.3847 18.1892 15.0872 18.3747 14.83C18.5602 14.5729 18.8041 14.3636 19.0864 14.2192C19.3686 14.0749 19.6812 13.9998 19.9982 14H20.9982C21.1295 13.9999 21.2596 14.0257 21.381 14.0759C21.5024 14.1261 21.6128 14.1997 21.7057 14.2925L27.4132 20H34.9982C36.3243 20 37.596 20.5268 38.5337 21.4645C39.4714 22.4021 39.9982 23.6739 39.9982 25ZM37.9982 25C37.9982 24.2044 37.6821 23.4413 37.1195 22.8787C36.5569 22.3161 35.7938 22 34.9982 22H26.9982C26.7333 21.9999 26.4793 21.8947 26.2919 21.7075L20.5844 16H19.9982L21.5594 20.6838C21.6095 20.834 21.6232 20.994 21.5994 21.1505C21.5755 21.3071 21.5149 21.4557 21.4224 21.5842C21.3298 21.7127 21.2081 21.8175 21.0672 21.8897C20.9263 21.962 20.7703 21.9998 20.6119 22H15.9982C15.8668 22.0001 15.7367 21.9743 15.6153 21.9241C15.4939 21.8739 15.3836 21.8003 15.2907 21.7075L12.5844 19H11.9982L13.7569 24.8625C13.9398 25.4822 14.319 26.0257 14.8376 26.4113C15.3561 26.7968 15.9858 27.0034 16.6319 27H37.9982V25Z" fill="#1989FB"/>
</svg>
