<svg width="88" height="88" viewBox="0 0 88 88" fill="none" xmlns="http://www.w3.org/2000/svg">
<path opacity="0.95" d="M82.445 34.1079C80.9639 32.56 79.4318 30.965 78.8543 29.5625C78.32 28.2779 78.2886 26.1486 78.2571 24.0861C78.1982 20.2518 78.1354 15.9068 75.1143 12.8857C72.0932 9.86464 67.7482 9.80179 63.9139 9.74286C61.8514 9.71143 59.7221 9.68 58.4375 9.14571C57.0389 8.56821 55.44 7.03607 53.8921 5.555C51.1814 2.95036 48.1014 0 44 0C39.8986 0 36.8225 2.95036 34.1079 5.555C32.56 7.03607 30.965 8.56821 29.5625 9.14571C28.2857 9.68 26.1486 9.71143 24.0861 9.74286C20.2518 9.80179 15.9068 9.86464 12.8857 12.8857C9.86464 15.9068 9.82143 20.2518 9.74286 24.0861C9.71143 26.1486 9.68 28.2779 9.14571 29.5625C8.56821 30.9611 7.03607 32.56 5.555 34.1079C2.95036 36.8186 0 39.8986 0 44C0 48.1014 2.95036 51.1775 5.555 53.8921C7.03607 55.44 8.56821 57.035 9.14571 58.4375C9.68 59.7221 9.71143 61.8514 9.74286 63.9139C9.80179 67.7482 9.86464 72.0932 12.8857 75.1143C15.9068 78.1354 20.2518 78.1982 24.0861 78.2571C26.1486 78.2886 28.2779 78.32 29.5625 78.8543C30.9611 79.4318 32.56 80.9639 34.1079 82.445C36.8186 85.0496 39.8986 88 44 88C48.1014 88 51.1775 85.0496 53.8921 82.445C55.44 80.9639 57.035 79.4318 58.4375 78.8543C59.7221 78.32 61.8514 78.2886 63.9139 78.2571C67.7482 78.1982 72.0932 78.1354 75.1143 75.1143C78.1354 72.0932 78.1982 67.7482 78.2571 63.9139C78.2886 61.8514 78.32 59.7221 78.8543 58.4375C79.4318 57.0389 80.9639 55.44 82.445 53.8921C85.0496 51.1814 88 48.1014 88 44C88 39.8986 85.0496 36.8225 82.445 34.1079ZM77.9075 49.5432C76.0257 51.5075 74.0771 53.5386 73.0439 56.0332C72.0539 58.4296 72.0107 61.1679 71.9714 63.8196C71.9321 66.5696 71.8889 69.4493 70.6671 70.6671C69.4454 71.885 66.5854 71.9321 63.8196 71.9714C61.1679 72.0107 58.4296 72.0539 56.0332 73.0439C53.5386 74.0771 51.5075 76.0257 49.5432 77.9075C47.5789 79.7893 45.5714 81.7143 44 81.7143C42.4286 81.7143 40.4054 79.7814 38.4568 77.9075C36.5082 76.0336 34.4614 74.0771 31.9668 73.0439C29.5704 72.0539 26.8321 72.0107 24.1804 71.9714C21.4304 71.9321 18.5507 71.8889 17.3329 70.6671C16.115 69.4454 16.0679 66.5854 16.0286 63.8196C15.9893 61.1679 15.9461 58.4296 14.9561 56.0332C13.9229 53.5386 11.9743 51.5075 10.0925 49.5432C8.21071 47.5789 6.28571 45.5714 6.28571 44C6.28571 42.4286 8.21857 40.4054 10.0925 38.4568C11.9664 36.5082 13.9229 34.4614 14.9561 31.9668C15.9461 29.5704 15.9893 26.8321 16.0286 24.1804C16.0679 21.4304 16.1111 18.5507 17.3329 17.3329C18.5546 16.115 21.4146 16.0679 24.1804 16.0286C26.8321 15.9893 29.5704 15.9461 31.9668 14.9561C34.4614 13.9229 36.4925 11.9743 38.4568 10.0925C40.4211 8.21071 42.4286 6.28571 44 6.28571C45.5714 6.28571 47.5946 8.21857 49.5432 10.0925C51.4918 11.9664 53.5386 13.9229 56.0332 14.9561C58.4296 15.9461 61.1679 15.9893 63.8196 16.0286C66.5696 16.0679 69.4493 16.1111 70.6671 17.3329C71.885 18.5546 71.9321 21.4146 71.9714 24.1804C72.0107 26.8321 72.0539 29.5704 73.0439 31.9668C74.0771 34.4614 76.0257 36.4925 77.9075 38.4568C79.7893 40.4211 81.7143 42.4286 81.7143 44C81.7143 45.5714 79.7814 47.5946 77.9075 49.5432ZM61.9379 32.3479C62.2301 32.6397 62.4619 32.9864 62.62 33.3679C62.7782 33.7494 62.8596 34.1584 62.8596 34.5714C62.8596 34.9844 62.7782 35.3934 62.62 35.775C62.4619 36.1565 62.2301 36.5031 61.9379 36.795L39.9379 58.795C39.646 59.0872 39.2993 59.319 38.9178 59.4772C38.5363 59.6354 38.1273 59.7168 37.7143 59.7168C37.3013 59.7168 36.8923 59.6354 36.5108 59.4772C36.1292 59.319 35.7826 59.0872 35.4907 58.795L26.0621 49.3664C25.4724 48.7767 25.1411 47.9769 25.1411 47.1429C25.1411 46.3089 25.4724 45.509 26.0621 44.9193C26.6519 44.3296 27.4517 43.9983 28.2857 43.9983C29.1197 43.9983 29.9196 44.3296 30.5093 44.9193L37.7143 52.1282L57.4907 32.3479C57.7826 32.0556 58.1292 31.8238 58.5108 31.6657C58.8923 31.5075 59.3013 31.4261 59.7143 31.4261C60.1273 31.4261 60.5363 31.5075 60.9178 31.6657C61.2993 31.8238 61.646 32.0556 61.9379 32.3479Z" fill="white"/>
</svg>
