<svg width="88" height="71" viewBox="0 0 88 71" fill="none" xmlns="http://www.w3.org/2000/svg">
<path opacity="0.95" d="M5.86667 23.4667V49.8667C5.86667 50.6446 6.17571 51.3907 6.72582 51.9408C7.27593 52.491 8.02203 52.8 8.8 52.8H38.1333C38.9113 52.8 39.6574 53.109 40.2075 53.6592C40.7576 54.2093 41.0667 54.9554 41.0667 55.7333C41.0667 56.5113 40.7576 57.2574 40.2075 57.8075C39.6574 58.3576 38.9113 58.6667 38.1333 58.6667H32.2667V64.5333H38.1333C38.9113 64.5333 39.6574 64.8424 40.2075 65.3925C40.7576 65.9426 41.0667 66.6887 41.0667 67.4667C41.0667 68.2446 40.7576 68.9907 40.2075 69.5408C39.6574 70.091 38.9113 70.4 38.1333 70.4H20.5333C19.7554 70.4 19.0093 70.091 18.4592 69.5408C17.909 68.9907 17.6 68.2446 17.6 67.4667C17.6 66.6887 17.909 65.9426 18.4592 65.3925C19.0093 64.8424 19.7554 64.5333 20.5333 64.5333H26.4V58.6667H8.8C6.46609 58.6667 4.22778 57.7395 2.57746 56.0892C0.92714 54.4389 0 52.2006 0 49.8667V23.4667C0 21.1328 0.92714 18.8944 2.57746 17.2441C4.22778 15.5938 6.46609 14.6667 8.8 14.6667H38.1333C38.9113 14.6667 39.6574 14.9757 40.2075 15.5258C40.7576 16.0759 41.0667 16.822 41.0667 17.6C41.0667 18.378 40.7576 19.1241 40.2075 19.6742C39.6574 20.2243 38.9113 20.5333 38.1333 20.5333H8.8C8.02203 20.5333 7.27593 20.8424 6.72582 21.3925C6.17571 21.9426 5.86667 22.6887 5.86667 23.4667ZM73.3333 11.7333H61.6C60.822 11.7333 60.0759 12.0424 59.5258 12.5925C58.9757 13.1426 58.6667 13.8887 58.6667 14.6667C58.6667 15.4446 58.9757 16.1907 59.5258 16.7408C60.0759 17.291 60.822 17.6 61.6 17.6H73.3333C74.1113 17.6 74.8574 17.291 75.4075 16.7408C75.9576 16.1907 76.2667 15.4446 76.2667 14.6667C76.2667 13.8887 75.9576 13.1426 75.4075 12.5925C74.8574 12.0424 74.1113 11.7333 73.3333 11.7333ZM73.3333 23.4667H61.6C60.822 23.4667 60.0759 23.7757 59.5258 24.3258C58.9757 24.8759 58.6667 25.622 58.6667 26.4C58.6667 27.178 58.9757 27.9241 59.5258 28.4742C60.0759 29.0243 60.822 29.3333 61.6 29.3333H73.3333C74.1113 29.3333 74.8574 29.0243 75.4075 28.4742C75.9576 27.9241 76.2667 27.178 76.2667 26.4C76.2667 25.622 75.9576 24.8759 75.4075 24.3258C74.8574 23.7757 74.1113 23.4667 73.3333 23.4667ZM88 5.86667V64.5333C88 66.0893 87.3819 67.5815 86.2817 68.6817C85.1815 69.7819 83.6893 70.4 82.1333 70.4H52.8C51.2441 70.4 49.7519 69.7819 48.6516 68.6817C47.5514 67.5815 46.9333 66.0893 46.9333 64.5333V5.86667C46.9333 4.31073 47.5514 2.81852 48.6516 1.71831C49.7519 0.618093 51.2441 0 52.8 0H82.1333C83.6893 0 85.1815 0.618093 86.2817 1.71831C87.3819 2.81852 88 4.31073 88 5.86667ZM82.1333 64.5333V5.86667H52.8V64.5333H82.1333ZM67.4667 49.8667C66.5964 49.8667 65.7457 50.1247 65.0222 50.6082C64.2986 51.0917 63.7346 51.7789 63.4016 52.5829C63.0686 53.3869 62.9814 54.2715 63.1512 55.1251C63.321 55.9786 63.7401 56.7626 64.3554 57.3779C64.9708 57.9933 65.7548 58.4123 66.6083 58.5821C67.4618 58.7519 68.3465 58.6648 69.1505 58.3317C69.9545 57.9987 70.6417 57.4347 71.1251 56.7112C71.6086 55.9876 71.8667 55.1369 71.8667 54.2667C71.8667 53.0997 71.4031 51.9806 70.5779 51.1554C69.7528 50.3302 68.6336 49.8667 67.4667 49.8667Z" fill="white"/>
</svg>
