<svg width="88" height="57" viewBox="0 0 88 57" fill="none" xmlns="http://www.w3.org/2000/svg">
<path opacity="0.95" d="M86.3853 56.165C86.0245 56.3684 85.6271 56.4985 85.2159 56.5477C84.8047 56.597 84.3878 56.5645 83.9893 56.452C83.5907 56.3396 83.2182 56.1495 82.8934 55.8926C82.5685 55.6358 82.2976 55.3172 82.0963 54.9553L54.7286 6.2842H47.1405V9.4263C47.1405 10.2596 46.8094 11.0588 46.2202 11.6481C45.6309 12.2374 44.8317 12.5684 43.9984 12.5684C43.165 12.5684 42.3658 12.2374 41.7766 11.6481C41.1873 11.0588 40.8563 10.2596 40.8563 9.4263V6.2842H33.2681L5.90042 54.9553C5.49209 55.6845 4.81082 56.2216 4.00648 56.4484C3.20214 56.6753 2.34063 56.5734 1.61146 56.165C0.882289 55.7567 0.345195 55.0754 0.118331 54.2711C-0.108533 53.4667 -0.00658447 52.6052 0.40175 51.8761L26.057 6.2842H3.15109C2.31775 6.2842 1.51855 5.95316 0.929287 5.3639C0.34003 4.77464 0.008988 3.97544 0.008988 3.1421C0.008988 2.30876 0.34003 1.50956 0.929287 0.9203C1.51855 0.331042 2.31775 0 3.15109 0H84.8457C85.679 0 86.4782 0.331042 87.0675 0.9203C87.6567 1.50956 87.9878 2.30876 87.9878 3.1421C87.9878 3.97544 87.6567 4.77464 87.0675 5.3639C86.4782 5.95316 85.679 6.2842 84.8457 6.2842H61.9398L87.595 51.8761C87.7984 52.2368 87.9284 52.6342 87.9777 53.0454C88.027 53.4566 87.9944 53.8735 87.882 54.2721C87.7696 54.6707 87.5795 55.0431 87.3226 55.368C87.0658 55.6928 86.7472 55.9637 86.3853 56.165ZM43.9984 21.9947C43.165 21.9947 42.3658 22.3257 41.7766 22.915C41.1873 23.5043 40.8563 24.3035 40.8563 25.1368V31.421C40.8563 32.2543 41.1873 33.0535 41.7766 33.6428C42.3658 34.2321 43.165 34.5631 43.9984 34.5631C44.8317 34.5631 45.6309 34.2321 46.2202 33.6428C46.8094 33.0535 47.1405 32.2543 47.1405 31.421V25.1368C47.1405 24.3035 46.8094 23.5043 46.2202 22.915C45.6309 22.3257 44.8317 21.9947 43.9984 21.9947ZM43.9984 43.9894C43.165 43.9894 42.3658 44.3204 41.7766 44.9097C41.1873 45.4989 40.8563 46.2981 40.8563 47.1315V53.4157C40.8563 54.249 41.1873 55.0482 41.7766 55.6375C42.3658 56.2267 43.165 56.5578 43.9984 56.5578C44.8317 56.5578 45.6309 56.2267 46.2202 55.6375C46.8094 55.0482 47.1405 54.249 47.1405 53.4157V47.1315C47.1405 46.2981 46.8094 45.4989 46.2202 44.9097C45.6309 44.3204 44.8317 43.9894 43.9984 43.9894Z" fill="white"/>
</svg>
