<svg width="88" height="95" viewBox="0 0 88 95" fill="none" xmlns="http://www.w3.org/2000/svg">
<path opacity="0.95" d="M84.48 21.2091L47.2492 0.837966C46.2545 0.288315 45.1365 0 44 0C42.8635 0 41.7455 0.288315 40.7508 0.837966L3.52 21.2176C2.45676 21.7993 1.56921 22.6559 0.950027 23.6978C0.330847 24.7397 0.00275109 25.9287 0 27.1407V67.6037C0.00275109 68.8157 0.330847 70.0047 0.950027 71.0466C1.56921 72.0885 2.45676 72.9451 3.52 73.5268L40.7508 93.9064C41.7455 94.4561 42.8635 94.7444 44 94.7444C45.1365 94.7444 46.2545 94.4561 47.2492 93.9064L84.48 73.5268C85.5432 72.9451 86.4308 72.0885 87.05 71.0466C87.6692 70.0047 87.9973 68.8157 88 67.6037V27.1449C87.9995 25.9307 87.6725 24.7391 87.0532 23.6948C86.4339 22.6504 85.5451 21.7919 84.48 21.2091ZM44 6.76104L77.99 25.3764L65.395 32.2726L31.4008 13.6572L44 6.76104ZM44 43.9918L10.01 25.3764L24.3523 17.5241L58.3423 36.1395L44 43.9918ZM6.76923 31.2995L40.6154 49.8218V86.1176L6.76923 67.608V31.2995ZM81.2308 67.591L47.3846 86.1176V49.8387L60.9231 42.4307V57.5303C60.9231 58.4279 61.2797 59.2888 61.9144 59.9236C62.5491 60.5583 63.41 60.9149 64.3077 60.9149C65.2053 60.9149 66.0662 60.5583 66.701 59.9236C67.3357 59.2888 67.6923 58.4279 67.6923 57.5303V38.7245L81.2308 31.2995V67.5868V67.591Z" fill="white"/>
</svg>
