<svg width="88" height="61" viewBox="0 0 88 61" fill="none" xmlns="http://www.w3.org/2000/svg">
<path opacity="0.95" d="M0 3.38419C0 2.48664 0.356548 1.62586 0.991206 0.991206C1.62586 0.356548 2.48664 0 3.38419 0H77.8363C78.7338 0 79.5946 0.356548 80.2293 0.991206C80.8639 1.62586 81.2205 2.48664 81.2205 3.38419C81.2205 4.28173 80.8639 5.14251 80.2293 5.77717C79.5946 6.41182 78.7338 6.76837 77.8363 6.76837H3.38419C2.48664 6.76837 1.62586 6.41182 0.991206 5.77717C0.356548 5.14251 0 4.28173 0 3.38419ZM3.38419 33.8419H33.8419C34.7394 33.8419 35.6002 33.4853 36.2348 32.8507C36.8695 32.216 37.226 31.3552 37.226 30.4577C37.226 29.5601 36.8695 28.6994 36.2348 28.0647C35.6002 27.43 34.7394 27.0735 33.8419 27.0735H3.38419C2.48664 27.0735 1.62586 27.43 0.991206 28.0647C0.356548 28.6994 0 29.5601 0 30.4577C0 31.3552 0.356548 32.216 0.991206 32.8507C1.62586 33.4853 2.48664 33.8419 3.38419 33.8419ZM40.6102 54.147H3.38419C2.48664 54.147 1.62586 54.5035 0.991206 55.1382C0.356548 55.7728 0 56.6336 0 57.5312C0 58.4287 0.356548 59.2895 0.991206 59.9241C1.62586 60.5588 2.48664 60.9153 3.38419 60.9153H40.6102C41.5078 60.9153 42.3686 60.5588 43.0032 59.9241C43.6379 59.2895 43.9944 58.4287 43.9944 57.5312C43.9944 56.6336 43.6379 55.7728 43.0032 55.1382C42.3686 54.5035 41.5078 54.147 40.6102 54.147ZM86.999 59.9255C86.6847 60.2401 86.3114 60.4897 85.9006 60.66C85.4898 60.8304 85.0494 60.918 84.6047 60.918C84.1599 60.918 83.7195 60.8304 83.3087 60.66C82.8979 60.4897 82.5246 60.2401 82.2103 59.9255L73.606 51.3381C70.1069 53.6467 65.8755 54.5742 61.7315 53.9409C57.5876 53.3076 53.8262 51.1587 51.1763 47.9104C48.5264 44.6622 47.1765 40.5459 47.3883 36.3592C47.6001 32.1725 49.3585 28.2135 52.3228 25.2493C55.287 22.285 59.246 20.5267 63.4327 20.3148C67.6194 20.103 71.7357 21.4529 74.9839 24.1028C78.2322 26.7527 80.3811 30.5141 81.0144 34.658C81.6477 38.802 80.7202 43.0334 78.4116 46.5326L86.999 55.1199C87.3162 55.4345 87.5679 55.8088 87.7397 56.2212C87.9115 56.6336 88 57.0759 88 57.5227C88 57.9695 87.9115 58.4118 87.7397 58.8242C87.5679 59.2366 87.3162 59.6109 86.999 59.9255ZM64.2995 47.3786C66.3075 47.3786 68.2704 46.7832 69.94 45.6676C71.6096 44.552 72.9109 42.9664 73.6793 41.1113C74.4477 39.2561 74.6488 37.2148 74.257 35.2454C73.8653 33.276 72.8983 31.467 71.4785 30.0471C70.0586 28.6272 68.2496 27.6603 66.2802 27.2686C64.3108 26.8768 62.2695 27.0779 60.4143 27.8463C58.5592 28.6147 56.9736 29.916 55.858 31.5856C54.7424 33.2552 54.147 35.2181 54.147 37.226C54.147 39.9187 55.2166 42.501 57.1206 44.405C59.0246 46.309 61.6069 47.3786 64.2995 47.3786Z" fill="white"/>
</svg>
