<svg width="88" height="71" viewBox="0 0 88 71" fill="none" xmlns="http://www.w3.org/2000/svg">
<path opacity="0.95" d="M84.4389 42.9141C83.3475 42.0745 82.0773 41.4977 80.7268 41.2288C79.3763 40.9598 77.982 41.0059 76.6523 41.3634L61.3138 44.8901C61.6706 43.3826 61.6816 41.8139 61.346 40.3016C61.0104 38.7892 60.3368 37.3724 59.3757 36.1575C58.4146 34.9425 57.191 33.9607 55.7966 33.2859C54.4022 32.6111 52.8731 32.2606 51.3239 32.2608H32.972C31.4308 32.2569 29.9041 32.5585 28.4801 33.1481C27.0562 33.7377 25.7632 34.6036 24.6758 35.6958L16.3833 43.9919H5.86559C4.30994 43.9919 2.818 44.6099 1.71799 45.7099C0.61798 46.8099 0 48.3019 0 49.8575L0 64.5215C0 66.0772 0.61798 67.5691 1.71799 68.6691C2.818 69.7691 4.30994 70.3871 5.86559 70.3871H43.9919C44.2317 70.3872 44.4706 70.3577 44.7031 70.2991L68.1655 64.4335C68.3151 64.3979 68.4611 64.3488 68.6018 64.2869L82.8515 58.2233L83.0128 58.15C84.3823 57.4657 85.555 56.444 86.4205 55.1811C87.286 53.9183 87.8158 52.4559 87.9599 50.9318C88.1041 49.4076 87.8578 47.8718 87.2444 46.4692C86.6309 45.0665 85.6705 43.843 84.4535 42.9141H84.4389ZM5.86559 49.8575H14.664V64.5215H5.86559V49.8575ZM80.4429 52.8673L66.5121 58.7989L43.6253 64.5215H20.5296V48.1382L28.8257 39.8457C29.3684 39.2987 30.0144 38.8649 30.7262 38.5698C31.438 38.2746 32.2014 38.1239 32.972 38.1263H51.3239C52.4907 38.1263 53.6096 38.5898 54.4346 39.4148C55.2596 40.2399 55.7231 41.3588 55.7231 42.5255C55.7231 43.6923 55.2596 44.8112 54.4346 45.6362C53.6096 46.4612 52.4907 46.9247 51.3239 46.9247H41.0591C40.2813 46.9247 39.5353 47.2337 38.9853 47.7837C38.4353 48.3337 38.1263 49.0797 38.1263 49.8575C38.1263 50.6354 38.4353 51.3813 38.9853 51.9313C39.5353 52.4813 40.2813 52.7903 41.0591 52.7903H52.7903C53.0111 52.7897 53.2311 52.7651 53.4465 52.717L78.0087 47.0677L78.1224 47.0384C78.8722 46.8302 79.6724 46.9067 80.3692 47.2531C81.066 47.5996 81.6101 48.1914 81.8968 48.9149C82.1834 49.6383 82.1924 50.4422 81.922 51.1719C81.6515 51.9015 81.1208 52.5054 80.4319 52.8673H80.4429ZM60.1223 26.3952C60.8469 26.396 61.5703 26.3371 62.2852 26.2192C63.0894 28.6078 64.5607 30.7161 66.5251 32.295C68.4895 33.8739 70.8649 34.8573 73.3705 35.129C75.8762 35.4006 78.4071 34.9491 80.6643 33.8279C82.9214 32.7067 84.8104 30.9626 86.1077 28.8019C87.4051 26.6412 88.0566 24.1542 87.9853 21.6349C87.914 19.1156 87.1228 16.6694 85.7053 14.5855C84.2879 12.5016 82.3033 10.8672 79.9864 9.87544C77.6694 8.88369 75.1169 8.57609 72.6307 8.98902C71.8564 6.68768 70.4622 4.64455 68.6016 3.08449C66.741 1.52442 64.486 0.507898 62.0849 0.146779C59.6838 -0.214339 57.2296 0.0939491 54.9924 1.03772C52.7552 1.98148 50.8218 3.52415 49.4048 5.49593C47.9879 7.46772 47.1423 9.79219 46.9613 12.2135C46.7802 14.6349 47.2707 17.0593 48.3787 19.2198C49.4867 21.3804 51.1692 23.1934 53.2412 24.4594C55.3131 25.7254 57.6942 26.3952 60.1223 26.3952ZM82.1183 21.996C82.1183 23.4461 81.6883 24.8637 80.8826 26.0694C80.077 27.2751 78.9319 28.2149 77.5921 28.7698C76.2524 29.3248 74.7782 29.47 73.3559 29.1871C71.9336 28.9042 70.6272 28.2059 69.6018 27.1805C68.5764 26.1551 67.8781 24.8486 67.5952 23.4264C67.3123 22.0041 67.4575 20.5299 68.0124 19.1901C68.5674 17.8504 69.5071 16.7053 70.7129 15.8996C71.9186 15.094 73.3362 14.664 74.7863 14.664C76.7309 14.664 78.5958 15.4365 79.9708 16.8115C81.3458 18.1865 82.1183 20.0514 82.1183 21.996ZM60.1223 5.8656C61.7218 5.8664 63.2772 6.39022 64.5513 7.35721C65.8254 8.3242 66.7483 9.6813 67.1794 11.2216C65.6773 12.2785 64.4123 13.6373 63.4654 15.211C62.5186 16.7847 61.9106 18.5388 61.6804 20.3609C61.1683 20.4715 60.6461 20.528 60.1223 20.5296C58.1777 20.5296 56.3128 19.7571 54.9378 18.3821C53.5628 17.0071 52.7903 15.1421 52.7903 13.1976C52.7903 11.253 53.5628 9.3881 54.9378 8.01309C56.3128 6.63807 58.1777 5.8656 60.1223 5.8656Z" fill="white"/>
</svg>
