<svg width="205" height="40" viewBox="0 0 205 40" fill="none" xmlns="http://www.w3.org/2000/svg">
<path d="M19.0083 5.85973C19.6067 4.01645 22.2145 4.01645 22.8128 5.85973L24.9481 12.4372C25.2157 13.2615 25.9838 13.8197 26.8504 13.8197H33.764C35.7011 13.8197 36.5069 16.298 34.9403 17.4372L29.344 21.5067C28.6437 22.016 28.3506 22.9181 28.618 23.7418L30.7549 30.3242C31.3531 32.1671 29.2434 33.6988 27.6763 32.5592L22.0868 28.4947C21.3856 27.9847 20.4356 27.9847 19.7343 28.4947L14.1448 32.5592C12.5777 33.6988 10.468 32.1671 11.0663 30.3242L13.2032 23.7418C13.4705 22.9181 13.1775 22.016 12.4771 21.5067L6.88087 17.4372C5.31426 16.298 6.12009 13.8197 8.05712 13.8197H14.9707C15.8374 13.8197 16.6054 13.2615 16.873 12.4372L19.0083 5.85973Z" fill="white"/>
<path d="M59.9724 5.85973C60.5708 4.01645 63.1785 4.01645 63.7769 5.85973L65.9122 12.4372C66.1798 13.2615 66.9478 13.8197 67.8145 13.8197H74.7281C76.6651 13.8197 77.471 16.298 75.9044 17.4372L70.3081 21.5067C69.6077 22.016 69.3147 22.9181 69.5821 23.7418L71.7189 30.3242C72.3172 32.1671 70.2075 33.6988 68.6404 32.5592L63.0509 28.4947C62.3496 27.9847 61.3997 27.9847 60.6984 28.4947L55.1089 32.5592C53.5418 33.6988 51.4321 32.1671 52.0304 30.3242L54.1672 23.7418C54.4346 22.9181 54.1416 22.016 53.4412 21.5067L47.8449 17.4372C46.2783 16.298 47.0842 13.8197 49.0212 13.8197H55.9348C56.8015 13.8197 57.5695 13.2615 57.8371 12.4372L59.9724 5.85973Z" fill="white"/>
<path d="M100.936 5.85973C101.535 4.01645 104.143 4.01645 104.741 5.85973L106.876 12.4372C107.144 13.2615 107.912 13.8197 108.779 13.8197H115.692C117.629 13.8197 118.435 16.298 116.868 17.4372L111.272 21.5067C110.572 22.016 110.279 22.9181 110.546 23.7418L112.683 30.3242C113.281 32.1671 111.172 33.6988 109.604 32.5592L104.015 28.4947C103.314 27.9847 102.364 27.9847 101.662 28.4947L96.0729 32.5592C94.5059 33.6988 92.3961 32.1671 92.9944 30.3242L95.1313 23.7418C95.3987 22.9181 95.1056 22.016 94.4053 21.5067L88.809 17.4372C87.2424 16.298 88.0482 13.8197 89.9852 13.8197H96.8989C97.7655 13.8197 98.5336 13.2615 98.8012 12.4372L100.936 5.85973Z" fill="white"/>
<path d="M141.901 5.85973C142.499 4.01645 145.107 4.01645 145.705 5.85973L147.84 12.4372C148.108 13.2615 148.876 13.8197 149.743 13.8197H156.656C158.593 13.8197 159.399 16.298 157.832 17.4372L152.236 21.5067C151.536 22.016 151.243 22.9181 151.51 23.7418L153.647 30.3242C154.245 32.1671 152.136 33.6988 150.569 32.5592L144.979 28.4947C144.278 27.9847 143.328 27.9847 142.627 28.4947L137.037 32.5592C135.47 33.6988 133.36 32.1671 133.959 30.3242L136.095 23.7418C136.363 22.9181 136.07 22.016 135.369 21.5067L129.773 17.4372C128.206 16.298 129.012 13.8197 130.949 13.8197H137.863C138.73 13.8197 139.498 13.2615 139.765 12.4372L141.901 5.85973Z" fill="white"/>
<path d="M183.34 6.01411C183.789 4.63166 185.745 4.63166 186.194 6.01411L188.329 12.5916C188.663 13.622 189.623 14.3197 190.707 14.3197H197.62C199.073 14.3197 199.677 16.1784 198.502 17.0328L192.906 21.1023C192.031 21.7389 191.664 22.8666 191.999 23.8962L194.136 30.4785C194.584 31.8607 193.002 33.0095 191.827 32.1549L186.237 28.0903C185.361 27.4528 184.173 27.4528 183.297 28.0903L177.707 32.1549C176.532 33.0095 174.949 31.8607 175.398 30.4785L177.535 23.8962C177.869 22.8666 177.503 21.7389 176.627 21.1023L171.031 17.0328C169.856 16.1784 170.461 14.3197 171.913 14.3197H178.827C179.91 14.3197 180.87 13.622 181.205 12.5916L183.34 6.01411Z" stroke="white"/>
</svg>
