<svg width="50" height="50" viewBox="0 0 50 50" fill="none" xmlns="http://www.w3.org/2000/svg">
<circle cx="25" cy="25" r="25" fill="white"/>
<path d="M32 12H18C16.9391 12 15.9217 12.4214 15.1716 13.1716C14.4214 13.9217 14 14.9391 14 16V32C14 33.0609 14.4214 34.0783 15.1716 34.8284C15.9217 35.5786 16.9391 36 18 36H19L17.2 38.4C17.1212 38.5051 17.0639 38.6246 17.0313 38.7518C16.9987 38.879 16.9915 39.0114 17.0101 39.1414C17.0286 39.2714 17.0726 39.3965 17.1395 39.5095C17.2064 39.6225 17.2949 39.7212 17.4 39.8C17.5051 39.8788 17.6246 39.9361 17.7518 39.9687C17.879 40.0013 18.0114 40.0085 18.1414 39.99C18.2714 39.9714 18.3965 39.9274 18.5095 39.8605C18.6225 39.7936 18.7212 39.7051 18.8 39.6L21.5 36H28.5L31.2 39.6C31.3591 39.8122 31.596 39.9524 31.8586 39.99C32.1211 40.0275 32.3878 39.9591 32.6 39.8C32.8122 39.6409 32.9524 39.404 32.99 39.1414C33.0275 38.8789 32.9591 38.6122 32.8 38.4L31 36H32C33.0609 36 34.0783 35.5786 34.8284 34.8284C35.5786 34.0783 36 33.0609 36 32V16C36 14.9391 35.5786 13.9217 34.8284 13.1716C34.0783 12.4214 33.0609 12 32 12ZM16 24V19H24V24H16ZM26 19H34V24H26V19ZM18 14H32C32.5304 14 33.0391 14.2107 33.4142 14.5858C33.7893 14.9609 34 15.4696 34 16V17H16V16C16 15.4696 16.2107 14.9609 16.5858 14.5858C16.9609 14.2107 17.4696 14 18 14ZM32 34H18C17.4696 34 16.9609 33.7893 16.5858 33.4142C16.2107 33.0391 16 32.5304 16 32V26H34V32C34 32.5304 33.7893 33.0391 33.4142 33.4142C33.0391 33.7893 32.5304 34 32 34ZM21 30.5C21 30.7967 20.912 31.0867 20.7472 31.3334C20.5824 31.58 20.3481 31.7723 20.074 31.8858C19.7999 31.9993 19.4983 32.0291 19.2074 31.9712C18.9164 31.9133 18.6491 31.7704 18.4393 31.5607C18.2296 31.3509 18.0867 31.0836 18.0288 30.7926C17.9709 30.5017 18.0006 30.2001 18.1142 29.926C18.2277 29.6519 18.42 29.4176 18.6666 29.2528C18.9133 29.088 19.2033 29 19.5 29C19.8978 29 20.2794 29.158 20.5607 29.4393C20.842 29.7206 21 30.1022 21 30.5ZM32 30.5C32 30.7967 31.912 31.0867 31.7472 31.3334C31.5824 31.58 31.3481 31.7723 31.074 31.8858C30.7999 31.9993 30.4983 32.0291 30.2074 31.9712C29.9164 31.9133 29.6491 31.7704 29.4393 31.5607C29.2296 31.3509 29.0867 31.0836 29.0288 30.7926C28.9709 30.5017 29.0007 30.2001 29.1142 29.926C29.2277 29.6519 29.42 29.4176 29.6666 29.2528C29.9133 29.088 30.2033 29 30.5 29C30.8978 29 31.2794 29.158 31.5607 29.4393C31.842 29.7206 32 30.1022 32 30.5Z" fill="#1989FB"/>
</svg>
