<svg width="17" height="14" viewBox="0 0 17 14" fill="none" xmlns="http://www.w3.org/2000/svg">
<path d="M-5.28047e-05 7.12462C-5.27888e-05 6.94228 0.0723807 6.76741 0.201312 6.63848C0.330243 6.50955 0.50511 6.43712 0.687447 6.43712L14.153 6.43712L9.13854 1.42352C9.07467 1.35965 9.024 1.28382 8.98943 1.20036C8.95486 1.1169 8.93707 1.02745 8.93707 0.937118C8.93707 0.846784 8.95486 0.757334 8.98943 0.673876C9.024 0.590418 9.07467 0.514587 9.13854 0.450711C9.20242 0.386834 9.27825 0.336168 9.36171 0.301598C9.44516 0.267028 9.53461 0.249235 9.62495 0.249235C9.71528 0.249235 9.80473 0.267028 9.88819 0.301598C9.97165 0.336168 10.0475 0.386835 10.1114 0.450711L16.2989 6.63821C16.3628 6.70206 16.4135 6.77789 16.4481 6.86135C16.4827 6.94481 16.5005 7.03427 16.5005 7.12462C16.5005 7.21497 16.4827 7.30443 16.4481 7.38789C16.4135 7.47135 16.3628 7.54717 16.2989 7.61102L10.1114 13.7985C9.98235 13.9275 9.80738 14 9.62495 14C9.44251 14 9.26754 13.9275 9.13854 13.7985C9.00954 13.6695 8.93706 13.4946 8.93706 13.3121C8.93706 13.1297 9.00954 12.9547 9.13854 12.8257L14.153 7.81212L0.687447 7.81212C0.50511 7.81212 0.330243 7.73968 0.201312 7.61075C0.0723806 7.48182 -5.28206e-05 7.30695 -5.28047e-05 7.12462Z" fill="white"/>
</svg>
