<svg width="32" height="32" viewBox="0 0 32 32" fill="none" xmlns="http://www.w3.org/2000/svg">
<path d="M0 5C0 2.23858 2.23858 0 5 0H27C29.7614 0 32 2.23858 32 5V27C32 29.7614 29.7614 32 27 32H5C2.23858 32 0 29.7614 0 27V5Z" fill="white"/>
<path d="M8 15.68C8 12.0587 8 10.2507 9.12 9.12C10.256 8 12.064 8 15.68 8H16.32C19.9413 8 21.7493 8 22.88 9.12C24 10.256 24 12.064 24 15.68V16.32C24 19.9413 24 21.7493 22.88 22.88C21.744 24 19.936 24 16.32 24H15.68C12.0587 24 10.2507 24 9.12 22.88C8 21.744 8 19.936 8 16.32V15.68Z" fill="#1989FB"/>
<path d="M16.512 19.5251C12.864 19.5251 10.784 17.0291 10.6987 12.8691H12.5333C12.592 15.9198 13.936 17.2104 15.0027 17.4771V12.8691H16.7253V15.4984C17.776 15.3864 18.8853 14.1864 19.2587 12.8638H20.976C20.836 13.5484 20.5563 14.1969 20.1543 14.7686C19.7524 15.3403 19.2369 15.823 18.64 16.1864C19.3061 16.518 19.8943 16.9869 20.366 17.5624C20.8376 18.1379 21.1818 18.8068 21.376 19.5251H19.4827C19.0773 18.2611 18.064 17.2798 16.7253 17.1464V19.5251H16.5173H16.512Z" fill="white"/>
</svg>
